# xmcd
#
# Track frame offsets:
#	150
#	7280
#	12645
#	18692
#	24070
#	29455
#	33655
#	38295
#	44485
#	49875
#	56012
#	61447
#	66840
#	71485
#	78380
#	83100
#	89967
#	94875
#	101600
#	106142
#	117875
#	124030
#	129415
#	135562
#	141450
#	148320
#	152995
#	159897
#	164517
#	169360
#	175482
#	180862
#	187755
#	192390
#	198562
#
# Disc length: 2715 seconds
#
# Revision: 1
# Processed by: cddbd v1.5.1PL0 Copyright (c) Steve Scherf et al.
# Submitted via: CDex 1.50Beta5
#
DISCID=f80a9923
DTITLE=大杉久美子 - 国際映画社アンソロジー 1979〜1984
DYEAR=1999
DGENRE=
TTITLE0=大杉久美子/くじらのホセフィーナ
TTITLE1=大杉久美子/さよならサンティー
TTITLE2=大塚文雄/ドンデラ音頭 調子出てますか
TTITLE3=大塚文雄/荒野の一番星
TTITLE4=たいらいさお/おいらドタコン
TTITLE5=藤内かおる/チョピ子はライバル
TTITLE6=たいらいさお/ドタコン音頭
TTITLE7=近藤英津江/しあわせさがして
TTITLE8=近藤英津江/ジョーの夢
TTITLE9=たいらいさお/銀河旋風ブライガー
TTITLE10=たいらいさお/さすらいキッド
TTITLE11=芹洋子/ハートは大騒ぎ
TTITLE12=芹洋子/虹の少女
TTITLE13=山形ユキオ/夢の狩人
TTITLE14=たいらいさお/渚にひとり
TTITLE15=原良枝/オリンポスのポロン
TTITLE16=原良枝/気分は女神チック
TTITLE17=山形ユキオ/銀河烈風バクシンガー
TTITLE18=増田直美/アステロイド・ブルース
TTITLE19=スージー・キム/サニタ・ビーダ
TTITLE20=片桐圭一/亜空大作戦のテーマ
TTITLE21=八木原奈々美/LOVE IS MORE
TTITLE22=はせもとひろ/FIGHTING ON
TTITLE23=飯野友一/はるかな友よ
TTITLE24=高橋みゆき/オレンジのダンシング
TTITLE25=高橋みゆき/星空ノクターン
TTITLE26=MOTCHIN/銀河疾風サスライガー
TTITLE27=増田直美/ハピーソング
TTITLE28=樋浦一帆/メイビー・ベイビー
TTITLE29=田中利由子/ロンリー・チェイサー
TTITLE30=田中利由子/メモリー・ララバイ
TTITLE31=アキ&イサオ/宗谷物語
TTITLE32=アキ&イサオ/出航
TTITLE33=陣内孝則/ハートブレイクCrossin’
TTITLE34=陣内孝則/サヨナラを言わないでくれ
EXTD=
EXTT0=
EXTT1=
EXTT2=
EXTT3=
EXTT4=
EXTT5=
EXTT6=
EXTT7=
EXTT8=
EXTT9=
EXTT10=
EXTT11=
EXTT12=
EXTT13=
EXTT14=
EXTT15=
EXTT16=
EXTT17=
EXTT18=
EXTT19=
EXTT20=
EXTT21=
EXTT22=
EXTT23=
EXTT24=
EXTT25=
EXTT26=
EXTT27=
EXTT28=
EXTT29=
EXTT30=
EXTT31=
EXTT32=
EXTT33=
EXTT34=
PLAYORDER=
